<?xml version="1.0" standalone="no"?>
<!DOCTYPE svg PUBLIC "-//W3C//DTD SVG 20010904//EN"
 "http://www.w3.org/TR/2001/REC-SVG-20010904/DTD/svg10.dtd">
<svg version="1.0" xmlns="http://www.w3.org/2000/svg"
 width="1708.000000pt" height="1708.000000pt" viewBox="0 0 1708.000000 1708.000000"
 preserveAspectRatio="xMidYMid meet">
<metadata>
Created by potrace 1.11, written by Peter Selinger 2001-2013
</metadata>
<g transform="translate(0.000000,1708.000000) scale(0.100000,-0.100000)"
fill="#000000" stroke="none">
<path d="M8280 17065 c-19 -7 -48 -19 -65 -26 -16 -7 -33 -12 -37 -11 -3 1
-12 -5 -18 -13 -7 -8 -17 -15 -22 -15 -16 0 -142 -89 -189 -133 -142 -134
-254 -347 -277 -524 -9 -73 -9 -5201 0 -5264 35 -237 159 -445 352 -591 230
-173 526 -227 800 -147 218 65 402 206 517 399 79 134 114 234 127 369 8 89 8
5119 -1 5201 -30 295 -224 574 -489 703 -135 66 -144 67 -416 66 -179 0 -257
-4 -282 -14z"/>
<path d="M11961 14632 c-34 -5 -112 -51 -139 -81 -13 -14 -33 -46 -45 -71 -21
-45 -21 -51 -22 -980 -1 -1023 -3 -985 57 -1063 48 -61 110 -91 193 -94 58 -2
78 2 120 23 61 32 101 72 127 131 20 45 20 66 20 992 0 945 0 947 -21 992 -51
109 -168 169 -290 151z"/>
<path d="M5120 14598 c-91 -16 -191 -107 -205 -189 -4 -18 -7 -454 -7 -967 l0
-933 27 -54 c46 -95 129 -145 240 -145 103 0 209 81 238 179 18 63 17 1874 -1
1937 -15 50 -79 125 -126 148 -50 24 -114 33 -166 24z"/>
<path d="M1545 12701 c-104 -35 -177 -100 -224 -200 l-26 -56 0 -4120 0 -4120
29 -63 c31 -67 100 -138 165 -172 79 -39 190 -48 279 -21 98 30 195 122 232
221 l23 61 0 4078 c0 2242 -3 4094 -7 4114 -14 76 -56 150 -110 196 -10 9 -24
22 -32 29 -7 7 -39 25 -70 39 -73 33 -185 40 -259 14z"/>
<path d="M15323 12700 c-102 -36 -173 -101 -224 -205 l-24 -50 0 -4120 0
-4120 34 -68 c39 -77 107 -142 186 -178 39 -18 69 -23 140 -23 82 -1 96 2 155
31 81 40 141 98 177 171 l28 57 0 4130 0 4130 -27 55 c-61 124 -180 201 -317
206 -53 1 -91 -3 -128 -16z"/>
<path d="M5048 11875 c-2 -2 -27 -6 -56 -9 -182 -19 -432 -149 -564 -292 -126
-136 -224 -321 -254 -476 -2 -13 -7 -34 -11 -48 -4 -14 -8 -1960 -9 -4325 -3
-4390 -3 -4331 30 -4470 43 -184 180 -391 344 -520 78 -62 70 -57 132 -91 268
-150 601 -166 883 -42 157 69 329 212 424 354 85 126 145 286 161 429 9 79 9
8554 0 8625 -37 294 -206 559 -455 715 -159 98 -314 144 -505 150 -64 2 -118
2 -120 0z"/>
<path d="M11875 11864 c-86 -15 -94 -17 -175 -44 -225 -76 -439 -264 -545
-480 -57 -115 -63 -130 -91 -245 -16 -65 -17 -349 -19 -4362 -1 -2361 2 -4321
7 -4355 33 -243 149 -453 348 -630 53 -47 238 -158 264 -158 2 0 17 -5 33 -12
92 -37 219 -59 346 -59 366 0 717 219 876 546 59 121 83 195 99 310 9 67 9
8586 0 8652 -7 49 -23 114 -47 190 -5 18 -26 66 -46 108 -136 279 -396 474
-720 540 -57 12 -260 11 -330 -1z"/>
<path d="M8410 10083 c-56 -11 -153 -65 -203 -112 -49 -46 -107 -141 -124
-202 -4 -13 -8 -234 -9 -490 -3 -568 -2 -577 115 -709 47 -54 139 -110 207
-126 49 -11 159 -13 204 -3 106 24 218 106 274 201 59 102 59 93 60 593 2 487
-1 534 -45 620 -51 99 -142 177 -249 213 -53 18 -174 26 -230 15z"/>
<path d="M8487 8004 c-1 -1 -33 -4 -72 -7 -301 -26 -577 -208 -739 -487 -49
-84 -102 -245 -113 -340 -10 -87 -9 -1903 1 -1970 16 -107 67 -248 128 -352
35 -59 112 -157 157 -198 44 -41 121 -100 168 -128 45 -27 179 -92 186 -90 1
0 22 -5 46 -12 310 -83 626 -19 866 175 197 159 329 400 352 640 7 70 9 1764
3 1885 -12 215 -115 438 -279 601 -131 130 -275 212 -456 258 -50 13 -239 32
-248 25z"/>
<path d="M8442 3934 c-94 -24 -163 -87 -193 -177 -16 -47 -17 -175 -17 -1771
l0 -1721 21 -53 c31 -75 68 -116 133 -148 129 -63 280 -21 359 100 41 62 41
65 39 1841 -1 941 -4 1720 -7 1731 -20 77 -77 146 -153 181 -64 29 -115 34
-182 17z"/>
</g>
</svg>
