<svg xmlns="http://www.w3.org/2000/svg" width="230.65" height="271.35" viewBox="0 0 230.645 271.35"><path d="M130.04 93.76c0 7.94-6.44 14.37-14.37 14.37-7.94 0-14.38-6.43-14.38-14.37v-79.4C101.3 6.44 107.7 0 115.6 0c7.97 0 14.4 6.43 14.4 14.37v79.4zm-8.56 37.3c0 3.78-3.07 6.84-6.85 6.84-3.77 0-6.84-3.06-6.84-6.84V118.4c0-3.78 3-6.84 6.8-6.84s6.82 3.06 6.82 6.84v12.66zm8.55 55.94c0 8.4-6.8 15.23-15.22 15.23-8.4 0-15.2-6.82-15.2-15.23v-27.03c0-8.4 6.8-15.23 15.27-15.23 8.42 0 15.24 6.82 15.24 15.23V187zm56.47 45c0 8.7-7.05 15.75-15.74 15.75-8.7 0-15.75-7.05-15.75-15.74V98.9c0-8.7 7.1-15.75 15.8-15.75 8.7 0 15.76 7.05 15.76 15.74V232zM77 232c0 8.7-7.06 15.75-15.75 15.75-8.7 0-15.75-7.05-15.75-15.74V98.9c0-8.7 7.05-15.75 15.75-15.75S77 90.2 77 98.9V232zm-65.36-28.4c0 3.2-2.6 5.8-5.82 5.8-3.2 0-5.82-2.6-5.82-5.8V75.62c0-3.22 2.6-5.82 5.82-5.82 3.2 0 5.82 2.6 5.82 5.82V203.6zm219 0c0 3.2-2.6 5.8-5.82 5.8-3.2 0-5.8-2.6-5.8-5.8V75.62c0-3.22 2.6-5.82 5.8-5.82 3.22 0 5.83 2.6 5.83 5.82V203.6zM119.1 267c0 2.4-1.95 4.35-4.36 4.35-2.4 0-4.36-1.95-4.36-4.36v-53.4c0-2.4 1.95-4.4 4.36-4.4 2.42 0 4.36 1.94 4.36 4.35V267zM65.7 72.2c0 2.27-1.83 4.1-4.1 4.1-2.27 0-4.1-1.83-4.1-4.1V43.97c0-2.27 1.83-4.1 4.1-4.1 2.27 0 4.1 1.83 4.1 4.1V72.2zm108.82-.5c0 2.24-1.84 4.1-4.1 4.1-2.28 0-4.1-1.86-4.1-4.13V43.45c0-2.27 1.82-4.1 4.1-4.1 2.26 0 4.1 1.83 4.1 4.1v28.23z" fill="#FFF"/></svg>