<svg xmlns="http://www.w3.org/2000/svg">
  <symbol id="expand" viewBox="0 0 24 24">
    <title>Expand</title>
    <path d="M16.59 8.59L12 13.17 7.41 8.59 6 10l6 6 6-6z"/>
    <path d="M0 0h24v24H0z" fill="none"/>
  </symbol>
  <symbol id="menu" viewBox="0 0 24 24">
    <title>Menu</title>
    <path d="M0 0h24v24H0z" fill="none"/>
    <path d="M3 18h18v-2H3v2zm0-5h18v-2H3v2zm0-7v2h18V6H3z"/>
  </symbol>
  <symbol id="close" viewBox="0 0 24 24">
    <title>Close</title>
    <path d="M19 6.41L17.59 5 12 10.59 6.41 5 5 6.41 10.59 12 5 17.59 6.41 19 12 13.41 17.59 19 19 17.59 13.41 12z"/>
    <path d="M0 0h24v24H0z" fill="none"/>
  </symbol>
  <symbol id="time" viewBox="0 0 24 24">
    <title>Time</title>
    <path d="M11.99 2C6.47 2 2 6.48 2 12s4.47 10 9.99 10C17.52 22 22 17.52 22 12S17.52 2 11.99 2zM12 20c-4.42 0-8-3.58-8-8s3.58-8 8-8 8 3.58 8 8-3.58 8-8 8z"/>
    <path d="M0 0h24v24H0z" fill="none"/>
    <path d="M12.5 7H11v6l5.25 3.15.75-1.23-4.5-2.67z"/>
  </symbol>
  <symbol id="submit" viewBox="0 0 24 24">
      <title>Submit</title>
      <path d="M2.01 21L23 12 2.01 3 2 10l15 2-15 2z"/>
      <path d="M0 0h24v24H0z" fill="none"/>
  </symbol>
</svg>
